<svg width="12" height="13" viewBox="0 0 12 13" fill="none" xmlns="http://www.w3.org/2000/svg">
<g clip-path="url(#clip0_404_2462)">
<path d="M12 9.79401C11.8254 9.86007 11.6326 9.85992 11.458 9.7936C11.2835 9.72728 11.1392 9.59938 11.0525 9.43401L9.32751 7.04851L9.07751 6.71501L7.07601 9.43701C6.9945 9.59544 6.85808 9.71876 6.69226 9.78391C6.52643 9.84906 6.34256 9.85158 6.17501 9.79101L8.75401 6.33101L6.35501 3.20551C6.5275 3.14335 6.71615 3.14252 6.88919 3.20318C7.06222 3.26383 7.20907 3.38226 7.30501 3.53851L9.09301 5.95351L10.891 3.54851C10.9731 3.39291 11.1096 3.27291 11.2744 3.21133C11.4393 3.14975 11.621 3.15088 11.785 3.21451L10.854 4.45001L9.59301 6.09151C9.55799 6.12275 9.52997 6.16104 9.51078 6.20386C9.49159 6.24669 9.48167 6.29309 9.48167 6.34001C9.48167 6.38694 9.49159 6.43334 9.51078 6.47616C9.52997 6.51899 9.55799 6.55727 9.59301 6.58851L11.995 9.79451L12 9.79401ZM0.001006 6.28801L0.211006 5.25051C0.788006 3.19901 3.14001 2.34551 4.75801 3.61551C5.70551 4.36001 5.94201 5.41401 5.89551 6.60201H0.558006C0.471506 8.72351 2.00251 10.0045 3.96001 9.35001C4.27734 9.23579 4.56138 9.04463 4.78668 8.79367C5.01199 8.54271 5.17153 8.23978 5.25101 7.91201C5.35451 7.57901 5.52501 7.52201 5.83801 7.61801C5.78585 8.0242 5.64226 8.41328 5.41804 8.75597C5.19382 9.09866 4.89481 9.38605 4.54351 9.59651C3.96321 9.91393 3.29742 10.0397 2.64132 9.95595C1.98522 9.87216 1.37241 9.58307 0.890506 9.13001C0.414021 8.59371 0.126044 7.91626 0.070506 7.20101C0.070506 7.08351 0.030506 6.97351 0.003506 6.86801C0.00107201 6.67486 -9.46786e-05 6.48168 5.99814e-06 6.28851L0.001006 6.28801ZM0.564506 6.14501H5.39151C5.36151 4.60701 4.39101 3.51601 3.09651 3.50601C1.65551 3.48601 0.624506 4.55301 0.561006 6.13801L0.564506 6.14501Z" fill="#111827"/>
</g>
<defs>
<clipPath id="clip0_404_2462">
<rect width="12" height="12" fill="white" transform="translate(0 0.5)"/>
</clipPath>
</defs>
</svg>
