<svg width="12" height="12" viewBox="0 0 12 12" fill="none" xmlns="http://www.w3.org/2000/svg">
<path d="M0 0H12V12H0V0ZM11.0167 9.138C10.9293 8.59067 10.5727 8.13067 9.51533 7.70133C9.14733 7.52867 8.73867 7.40933 8.616 7.132C8.57067 6.96667 8.564 6.87733 8.59333 6.77933C8.66867 6.45667 9.05133 6.36 9.35133 6.44933C9.54667 6.50933 9.72667 6.65933 9.83933 6.9C10.356 6.562 10.356 6.562 10.7167 6.33733C10.5813 6.128 10.514 6.03667 10.424 5.94667C10.1087 5.59467 9.68867 5.41467 9.00667 5.43L8.65467 5.47467C8.31667 5.55733 7.994 5.738 7.79933 5.97733C7.22933 6.62267 7.394 7.74733 8.084 8.21333C8.766 8.72333 9.76467 8.83533 9.892 9.31533C10.012 9.90067 9.45733 10.088 8.90867 10.0207C8.504 9.93 8.27867 9.728 8.03133 9.35267L7.11667 9.878C7.22133 10.1173 7.34133 10.2227 7.52133 10.4327C8.39133 11.31 10.5667 11.2653 10.9567 9.93C10.9707 9.88533 11.0767 9.578 10.994 9.10533L11.0167 9.138ZM6.52533 5.51533H5.40133C5.40133 6.484 5.39667 7.44733 5.39667 8.418C5.39667 9.034 5.428 9.59933 5.32733 9.77333C5.16267 10.118 4.73667 10.074 4.544 10.0127C4.346 9.91533 4.24533 9.78 4.12867 9.58533C4.09733 9.53333 4.074 9.488 4.06533 9.488L3.15333 10.0507C3.306 10.366 3.52867 10.6367 3.816 10.8087C4.24333 11.064 4.81733 11.1467 5.41867 11.012C5.81067 10.8987 6.14867 10.666 6.324 10.306C6.58 9.84133 6.52533 9.27067 6.52333 8.63333C6.52867 7.606 6.52333 6.578 6.52333 5.54333L6.52533 5.51533Z" fill="#fff"/>
</svg>
