<svg width="12" height="15" viewBox="0 0 12 15" fill="none" xmlns="http://www.w3.org/2000/svg">
<path d="M6.00006 14.1567C5.81673 14.1567 5.64539 14.1073 5.48539 14.022L3.85939 13.0567C3.61606 12.9213 3.73806 12.872 3.81139 12.8473C4.14206 12.7373 4.20339 12.7133 4.54539 12.5187C4.58273 12.494 4.63139 12.5053 4.66873 12.53L5.91539 13.2767C5.96473 13.3007 6.02606 13.3007 6.06273 13.2767L10.9421 10.452C10.9914 10.428 11.0154 10.3787 11.0154 10.3173V4.67867C11.0154 4.61801 10.9914 4.56867 10.9421 4.54467L6.06273 1.73201C6.01406 1.70734 5.95273 1.70734 5.91539 1.73201L1.03473 4.54401C0.98606 4.56801 0.961393 4.63001 0.961393 4.67801V10.316C0.961393 10.3647 0.98606 10.4267 1.03473 10.4507L2.36806 11.222C3.08939 11.5873 3.54273 11.1587 3.54273 10.732V5.16801C3.54273 5.09467 3.60339 5.02067 3.68939 5.02067H4.31339C4.38539 5.02067 4.46006 5.08201 4.46006 5.16801V10.7327C4.46006 11.6987 3.93473 12.262 3.01739 12.262C2.73606 12.262 2.51606 12.262 1.89206 11.9553L0.608727 11.2227C0.452365 11.1318 0.3226 11.0014 0.232401 10.8447C0.142202 10.6879 0.0947291 10.5102 0.0947266 10.3293V4.69067C0.0947266 4.32401 0.29006 3.98134 0.608727 3.79801L5.48606 0.973339C5.64439 0.888662 5.82117 0.84436 6.00073 0.84436C6.18028 0.84436 6.35706 0.888662 6.51539 0.973339L11.3934 3.79801C11.7127 3.98067 11.9074 4.32401 11.9074 4.69067V10.3293C11.9074 10.6953 11.7121 11.038 11.3934 11.2227L6.51539 14.0467C6.35473 14.12 6.17139 14.1567 6.00006 14.1567ZM7.50406 10.2793C5.36406 10.2793 4.92406 9.30067 4.92406 8.47001C4.92406 8.39667 4.98539 8.32267 5.07073 8.32267H5.70673C5.78006 8.32267 5.84073 8.37134 5.84073 8.44534C5.93873 9.09267 6.21939 9.41134 7.51673 9.41134C8.54339 9.41134 8.98473 9.17801 8.98473 8.62801C8.98473 8.31001 8.86139 8.07801 7.26006 7.91934C5.92739 7.78601 5.09606 7.49067 5.09606 6.42734C5.09606 5.43734 5.92739 4.85001 7.32206 4.85001C8.88673 4.85001 9.65739 5.38934 9.75473 6.56201C9.75356 6.60158 9.74056 6.6399 9.71739 6.67201C9.69273 6.69601 9.65673 6.72067 9.62006 6.72067H8.98473C8.95332 6.72001 8.92303 6.70889 8.89865 6.6891C8.87426 6.6693 8.85716 6.64194 8.85006 6.61134C8.70273 5.93667 8.32406 5.71801 7.32206 5.71801C6.19606 5.71801 6.06139 6.10934 6.06139 6.40267C6.06139 6.75667 6.21939 6.86667 7.73739 7.06267C9.24139 7.25801 9.95073 7.53934 9.95073 8.59201C9.93739 9.66867 9.05806 10.2793 7.50406 10.2793Z" fill="#fff"/>
</svg>
