<svg width="16" height="17" viewBox="0 0 16 17" fill="none" xmlns="http://www.w3.org/2000/svg">
<path d="M8.00006 9.18667C8.65728 9.18667 9.19006 8.65389 9.19006 7.99667C9.19006 7.33945 8.65728 6.80667 8.00006 6.80667C7.34284 6.80667 6.81006 7.33945 6.81006 7.99667C6.81006 8.65389 7.34284 9.18667 8.00006 9.18667Z" fill="#111827"/>
<path d="M4.66799 10.3627L4.40466 10.2953C2.44866 9.80134 1.32666 8.96134 1.32666 7.994C1.32666 7.026 2.44933 6.18667 4.40466 5.69267L4.66799 5.626L4.74199 5.88667C4.93969 6.56913 5.19298 7.23425 5.49933 7.87534L5.55599 7.994L5.49933 8.11267C5.19266 8.75467 4.93866 9.42 4.74199 10.1027L4.66799 10.3627ZM4.28333 6.29934C2.79733 6.718 1.88466 7.35667 1.88466 7.994C1.88466 8.63 2.79666 9.26934 4.28333 9.68734C4.46533 9.10867 4.68533 8.54267 4.93999 7.994C4.68348 7.44442 4.4641 6.87826 4.28333 6.29934ZM11.3313 10.3627L11.258 10.1013C11.0598 9.41874 10.8063 8.75343 10.5 8.112L10.4433 7.994L10.5 7.87467C10.8067 7.234 11.0593 6.568 11.258 5.88534L11.3313 5.62534L11.5947 5.692C13.5513 6.186 14.6727 7.02534 14.6727 7.994C14.6727 8.962 13.5507 9.80134 11.5947 10.2953L11.3313 10.3627ZM11.058 7.994C11.3247 8.57134 11.5467 9.13934 11.716 9.68734C13.2027 9.26934 14.1153 8.63 14.1153 7.994C14.1153 7.35667 13.2033 6.71867 11.716 6.29934C11.5342 6.87808 11.3144 7.4442 11.058 7.994Z" fill="#111827"/>
<path d="M4.27951 6.29666L4.20618 6.03666C3.65551 4.09799 3.82218 2.70932 4.66418 2.22532C5.48751 1.74866 6.81218 2.31199 8.19951 3.73532L8.38884 3.92999L8.19951 4.12399C7.70676 4.63645 7.2564 5.18803 6.85284 5.77332L6.77751 5.88132L6.64684 5.89199C5.93723 5.94772 5.23335 6.06121 4.54218 6.23132L4.27951 6.29666ZM5.33418 2.61066C5.18484 2.61066 5.05284 2.64332 4.94151 2.70732C4.38951 3.02532 4.29218 4.13266 4.67218 5.62732C5.26618 5.49599 5.86551 5.40199 6.46951 5.34932C6.81919 4.85336 7.20065 4.38059 7.61151 3.93399C6.74284 3.08932 5.92284 2.61066 5.33418 2.61066ZM10.6655 13.9333C9.87351 13.9333 8.85618 13.336 7.80018 12.252L7.61151 12.058L7.80018 11.8647C8.293 11.3514 8.74358 10.7991 9.14751 10.2133L9.22218 10.1067L9.35151 10.094C10.0614 10.0392 10.7655 9.9262 11.4568 9.75599L11.7202 9.68932L11.7942 9.94999C12.3422 11.8873 12.1762 13.278 11.3355 13.762C11.1314 13.8777 10.9001 13.9368 10.6655 13.9333ZM8.38884 12.0533C9.25684 12.898 10.0775 13.3773 10.6655 13.3773C10.8155 13.3773 10.9475 13.344 11.0582 13.2807C11.6108 12.962 11.7088 11.8527 11.3275 10.358C10.7342 10.49 10.1342 10.5847 9.52884 10.6373C9.18065 11.1341 8.79981 11.6071 8.38884 12.0533Z" fill="#111827"/>
<path d="M11.7198 6.29666L11.4565 6.23066C10.7652 6.06002 10.0611 5.94653 9.35118 5.89133L9.22184 5.88L9.14718 5.772C8.74381 5.18639 8.29319 4.63477 7.79984 4.12266L7.61118 3.92866L7.79984 3.73533C9.18651 2.31266 10.5105 1.74933 11.3352 2.22533C12.1765 2.71 12.3438 4.09866 11.7938 6.03666L11.7198 6.29666ZM9.52851 5.34933C10.1645 5.406 10.7672 5.50133 11.3272 5.62733C11.7078 4.13266 11.6105 3.02533 11.0578 2.70666C10.5085 2.38866 9.47451 2.87533 8.38851 3.934C8.79918 4.38066 9.18051 4.85266 9.52851 5.34933ZM5.33384 13.9333C5.09926 13.9367 4.86802 13.8775 4.66384 13.762C3.82184 13.278 3.65518 11.888 4.20518 9.95L4.27718 9.68933L4.54051 9.756C5.18318 9.918 5.89118 10.032 6.64584 10.094L6.77518 10.1067L6.85051 10.2133C7.25318 10.7987 7.70384 11.3513 8.19718 11.8647L8.38651 12.058L8.19718 12.252C7.14184 13.3367 6.12451 13.9333 5.33384 13.9333ZM4.67184 10.3587C4.29184 11.8533 4.38918 12.9627 4.94118 13.2813C5.49118 13.5947 6.52184 13.1113 7.61118 12.0533C7.20048 11.6066 6.81902 11.1338 6.46918 10.638C5.86457 10.5845 5.26416 10.4912 4.67184 10.3587Z" fill="#111827"/>
<path d="M7.99994 10.7087C7.54194 10.7087 7.07194 10.6893 6.59994 10.65L6.46928 10.6387L6.39394 10.5307C6.12778 10.1479 5.87735 9.7545 5.64327 9.35134C5.41093 8.94709 5.19498 8.53365 4.99594 8.11201L4.93994 7.99401L4.99594 7.87467C5.19527 7.45334 5.41061 7.04001 5.64327 6.63601C5.87461 6.23867 6.12727 5.84134 6.39394 5.45601L6.46928 5.34934L6.59994 5.33734C7.5312 5.25934 8.46735 5.25934 9.39861 5.33734L9.52794 5.35001L9.60327 5.45667C10.1365 6.22251 10.6048 7.03154 11.0033 7.87534L11.0586 7.99467L11.0033 8.11267C10.6059 8.95705 10.1375 9.76617 9.60327 10.5313L9.52794 10.6393L9.39861 10.6507C8.92794 10.6887 8.45727 10.7087 7.99994 10.7087ZM6.77728 10.106C7.60061 10.168 8.39928 10.168 9.22194 10.106C9.6812 9.43348 10.0895 8.72751 10.4433 7.99401C10.0907 7.25985 9.6824 6.55378 9.22194 5.88201C8.40826 5.81934 7.59096 5.81934 6.77728 5.88201C6.31643 6.55354 5.90811 7.25963 5.55594 7.99401C5.91053 8.7271 6.31875 9.43302 6.77728 10.106Z" fill="#111827"/>
</svg>
