<svg width="18" height="16" viewBox="0 0 18 16" fill="none" xmlns="http://www.w3.org/2000/svg">
<path d="M17.9647 2.42769C17.2909 2.72439 16.577 2.92024 15.846 3.00894C16.6156 2.54638 17.1918 1.82097 17.4683 0.966687C16.755 1.38294 15.9645 1.68594 15.123 1.85469C14.5678 1.26101 13.8322 0.867253 13.0302 0.734564C12.2283 0.601874 11.405 0.737675 10.6882 1.12088C9.97138 1.50409 9.40114 2.11325 9.06604 2.85378C8.73094 3.59431 8.64972 4.42476 8.835 5.21619C5.7675 5.07144 3.05025 3.59769 1.23 1.37169C0.899095 1.93405 0.726498 2.57546 0.7305 3.22794C0.7305 4.51044 1.383 5.63769 2.3715 6.29994C1.78564 6.28129 1.21273 6.12289 0.7005 5.83794V5.88294C0.700168 6.73523 0.994701 7.56139 1.53413 8.22126C2.07356 8.88112 2.82466 9.33404 3.66 9.50319C3.11872 9.64822 2.55181 9.67001 2.001 9.56694C2.23809 10.3004 2.69825 10.9416 3.31726 11.4011C3.93627 11.8605 4.68326 12.1152 5.454 12.1297C4.14865 13.1541 2.53686 13.7102 0.8775 13.7084C0.585 13.7084 0.29325 13.6912 0 13.6582C1.69178 14.7414 3.65888 15.3164 5.66775 15.3149C12.4575 15.3149 16.1663 9.69294 16.1663 4.82619C16.1663 4.66869 16.1663 4.51119 16.155 4.35369C16.8795 3.83233 17.5044 3.18505 18 2.44269L17.9647 2.42769Z" fill="#F7F3F3"/>
</svg>
